<?xml version="1.0" encoding="utf-8"?>
<!-- Generator: Adobe Illustrator 23.0.3, SVG Export Plug-In . SVG Version: 6.00 Build 0)  -->
<svg version="1.1" id="Capa_1" xmlns="http://www.w3.org/2000/svg" xmlns:xlink="http://www.w3.org/1999/xlink" x="0px" y="0px"
	 viewBox="0 0 1200 1200" enable-background="new 0 0 1200 1200" xml:space="preserve">
<path fill="#C88F84" d="M1146.687,525.471c-2.638-3.179-7.406-6.05-15.906-5.999c-0.852-0.227-1.71-0.178-2.486,0.097
	c-5.282,0.357-11.819,1.737-19.986,4.691c-29.758,10.771-114.221,47.556-141.139,59.338c6.542-23.33,8.207-45.118-1.145-52.545
	c-3.424-2.718-6.823-3.762-10.14-3.085c-6.389,1.3-10.179,8.265-14.977,17.082c-5.109,9.391-11.465,21.079-22.226,27.34
	c-8.927,5.194-21.354,16.582-34.949,30.372c25.488-53.062,43.556-128.139,30.055-153.913c-0.269-0.51-0.638-0.959-1.085-1.322
	c-0.015-0.012-0.03-0.02-0.045-0.032c2.675-9.841,1.173-34.518-1.074-65.492c-0.569-7.854-1.107-15.291-1.382-20.84
	c3.078-10.298,2.993-16.881-0.256-21.282c-2.432-3.292-6.422-4.962-11.86-4.962c-11.17,0-41.652,30.284-57.042,50.126
	c-0.39-15.969-3.171-32.101-9.352-41.495c-3.399-5.166-7.609-8.067-12.517-8.618c-5.177-0.562-9.368,4.736-16.221,13.559
	c-6.237,8.032-13.825,17.782-22.856,23.508c-1.147-3.501-2.351-6.68-3.583-9.452c-4.575-10.298-9.695-16.428-15.21-18.222
	c-20.025-6.5-30.478,17.225-39.687,38.173c-1.077,2.453-2.154,4.902-3.243,7.304c-3.123,6.893-9.835,18.379-17.764,31.511
	c-5.228-17.806-14.944-43.94-27.004-44.234c-13.475-0.315-27.676,15.706-35.447,33.049c-8.977-26.624-25.361-36.455-38.669-36.455
	c-17.067,0-31.201,13.147-39.02,35.705c-7.845-17.046-21.831-32.587-35.094-32.299c-11.993,0.292-21.666,26.131-26.915,43.929
	c-7.973-12.937-14.713-24.271-17.854-31.206c-1.087-2.4-2.164-4.85-3.241-7.3c-9.206-20.947-19.626-44.696-39.687-38.177
	c-5.313,1.727-10.221,7.587-14.591,17.417c-0.146,0.328-0.287,0.685-0.431,1.022c-8.835-11.304-24.547-29.27-34.259-27.798
	c-14.413,2.179-16.738,18.574-17.786,33.77c-0.312,4.526-1.884,9.821-3.546,15.427c-0.694,2.34-1.42,4.792-2.104,7.346
	c-12.199-17.824-50.797-56.59-64.065-56.59c-5.437,0-9.427,1.669-11.858,4.962c-3.251,4.4-3.336,10.981-0.258,21.282
	c-0.273,5.552-0.813,12.997-1.384,20.859c-2.244,30.963-3.746,55.633-1.073,65.472c-0.015,0.012-0.03,0.02-0.046,0.033
	c-0.448,0.363-0.816,0.812-1.083,1.323c-14.165,27.043,6.414,108.353,33.859,161.567c-14.357-14.04-27.411-25.939-36.516-32.058
	c-8.644-5.808-15.991-16.785-22.473-26.469c-8.476-12.659-15.807-23.609-25.317-21.668c-8.715,1.76-14.324,6.994-16.219,15.133
	c-2.427,10.426,1.879,26.036,10.448,44.379c-23.18-6.447-94.012-28.262-137.011-64.724c-17.813-15.106-28.776-10.889-33.722-7.031
	c-8.175,6.373-10.15,19.548-6.452,27.071c53.015,107.895,177.564,178.625,230.749,208.828c7.907,4.49,14.151,8.037,18.656,10.822
	c2.625,1.623,5.483,3.213,8.479,4.766c-4.896-0.417-10.664-0.903-17.498-1.477c-25.783-2.163-55.008-4.614-63.849-5.807
	c-7.762-1.048-19.582,0.535-27.352,8.449c-3.676,3.744-7.612,10.324-6.943,20.811c0.002,0.251,0.026,0.501,0.074,0.752
	c0.077,0.923,0.124,1.823,0.275,2.807c0.11,0.719,0.404,1.397,0.855,1.969c29.187,37.093,139.17,68.149,184.426,68.149
	c2.171,0,4.193-0.071,6.05-0.217c23.468-1.843,54.231-7.304,83.982-12.586c24.333-4.32,47.329-8.398,63.372-9.921
	c12.328,5.19,24.843,8.24,37.278,8.315c12.01,3.504,22.649,4.205,29.145,4.205c6.496,0,17.136-0.701,29.146-4.205
	c12.436-0.075,24.952-3.125,37.281-8.316c14.321,1.363,35.288,4.936,57.471,8.719c32.512,5.543,69.363,11.826,92.806,12.295
	c2.377,0.048,4.738,0.071,7.098,0.071c78.087,0,148.398-25.768,180.456-66.51c0.451-0.572,0.745-1.25,0.855-1.969
	c2.446-15.908-5.284-24.541-10.11-28.272c-7.453-5.757-17.477-7.464-24.944-4.24c-15.485,6.677-63.546,5.456-84.808,4.887
	c4.526-2.086,9.038-4.206,13.484-6.328c43.861-20.933,183.718-105.498,248.813-215.712
	C1151.111,538.439,1150.974,530.643,1146.687,525.471z M1111.183,532.198c4.453-1.612,8.214-2.661,11.443-3.333
	c-13.845,24.602-64.449,78.411-95.796,103.332c-20.575,16.358-109.285,69.443-150.503,93.877
	c16.64-20.341,32.802-41.604,45.114-57.804c6.587-8.666,12.273-16.15,16.408-21.364c8.958-11.293,19.056-31.819,26.043-52.654
	C978.043,588.037,1078.368,544.072,1111.183,532.198z M922.925,579.685c12.803-7.448,19.788-20.286,25.4-30.602
	c3.144-5.778,6.705-12.328,9.244-12.844c0.976-0.218,2.429,0.808,3.207,1.425c11.536,9.16-7.513,76.223-29.538,103.996
	c-4.191,5.283-9.904,12.799-16.518,21.502c-26.282,34.585-70.275,92.468-97.953,113.809c-2.782,2.145-5.764,4.204-8.86,6.212
	c-0.161,0.088-0.31,0.191-0.456,0.3c-24.239,15.593-57.962,27.018-100.583,34.081c52.424-40.871,94.678-106.614,101.627-120.262
	c1.116-2.192,2.227-4.808,3.3-7.739c1.078,0.014,2.159-0.383,2.99-1.193c9.758-9.483,22.633-23.535,36.26-38.412
	C877.206,621.401,906.854,589.037,922.925,579.685z M860.134,627.598c-5.157,5.57-10.298,11.183-15.313,16.657
	c-10.4,11.353-20.343,22.201-28.744,30.852c5.247-21.937,7.207-50.796-1.839-67.606c-0.645-4.717-2.87-9.927-6.324-13.605
	c13.462-14.081,64.507-68.813,81.867-106.763c1.234-2.7,2.547-5.985,3.935-9.463c2.602-6.511,9.5-23.781,13.072-23.927
	C919.494,481.459,893.826,577.63,860.134,627.598z M599.489,716.212c-12.691,0-26.184,7.081-38.395,14.947
	c-7.771-11.784-17.852-19.115-29.384-27.424c-10.416-7.506-22.032-15.888-34.365-29.386c-3.961-18.046,1.169-43.328,12.676-61.955
	c6.441-10.427,13.949-17.084,21.139-18.744c8.73-2.01,11.598,1.789,27.642,29.154c2.476,4.224,5.234,8.924,8.347,14.136
	c0.201,0.337,0.448,0.643,0.734,0.911c3.982,3.741,8.254,11.456,13.2,20.39c12.199,22.035,28.685,51.743,62.127,65.882
	c-1.876,2.171-3.655,4.504-5.325,7.036C625.676,723.293,612.181,716.212,599.489,716.212z M398.483,589.426
	c-3.08-3.214-9.787-10.301-18.169-19.643c-10.737-21.068-15.298-55.618-10.833-58.841c0.047-0.026,0.101-0.044,0.147-0.071
	c1.746,0.388,5.833,6.384,8.826,10.78c6.369,9.35,15.089,22.154,29.073,31.325c23.737,15.565,68.948,64.082,82.73,79.993
	c0.382,0.441,0.84,0.771,1.332,1.013c-2.751,9.75-4.119,19.752-3.948,28.991c-22.123-26.478-58.142-66.176-78.888-70.994
	C405.517,589.544,401.955,588.682,398.483,589.426z M379.317,449.843c6.974,9.905,15.654,22.233,27.326,37.558
	c15.089,19.815,33.34,41.281,49.442,60.22c21.268,25.015,39.636,46.62,46.665,59.158c0.127,0.226,0.295,0.409,0.454,0.601
	c-0.12,0.191-0.248,0.387-0.365,0.576c-3.26,5.277-6.043,11.061-8.311,17.081c-13.59-15.366-57.473-62.794-82.372-79.122
	c-12.58-8.25-20.756-20.253-26.726-29.018c-5.116-7.512-9.691-14.193-15.234-14.549c-12.124-35.057-13.932-70.282-10.985-77.174
	C362.744,426.308,370.474,437.285,379.317,449.843z M649.571,717.542c-13.148-4.989-23.653-12.666-32.276-21.498
	c6.098-8.612,8.371-18.098,10.347-26.533c2.289-9.777,4.097-17.502,10.775-21.619c0.577-0.356,1.061-0.846,1.41-1.428
	c23.07-38.605,29.052-46.645,39.766-44.172c2.172,0.502,4.158,1.534,5.962,3.018c0.091,0.081,0.173,0.169,0.271,0.243
	c12.462,10.684,16.053,43.261,11.78,71.989c-0.054,0.363-0.045,0.719-0.008,1.068c-10.833,11.06-21.057,18.442-30.33,25.124
	C660.88,708.339,654.93,712.629,649.571,717.542z M772.108,511.483c0.048-0.052,0.096-0.101,0.142-0.156
	c6.954-7.66,13.731-15.581,20.087-23.926c11.671-15.324,20.349-27.65,27.323-37.554c8.846-12.564,16.579-23.544,20.11-24.673
	c2.994,6.966,1.01,42.472-10.988,77.177c-5.546,0.354-10.116,7.034-15.231,14.546c-5.971,8.765-14.147,20.769-26.727,29.019
	c-24.815,16.274-68.521,63.475-82.256,78.989c-2.216-9.503-5.754-17.866-11.004-23.577c10.697-20.253,30.196-40.035,50.813-60.926
	C753.613,531.046,763.014,521.492,772.108,511.483z M706.309,634.345c0.905-0.169,1.764-0.625,2.414-1.376
	c13.787-15.914,59.005-64.434,82.729-79.993c13.985-9.17,22.707-21.976,29.077-31.326c1.891-2.777,4.22-6.195,6.123-8.422
	c0.465,0.695,1.135,1.262,1.973,1.587c0.786,0.304,1.608,0.35,2.378,0.19c1.265,10.335-3.39,37.226-12.335,54.775
	c-8.383,9.344-15.091,16.432-18.171,19.646c-3.469-0.742-7.03,0.115-10.27,2.551c-21.965,5.1-61.066,49.321-82.655,75.532
	c-0.141,0.171-0.281,0.331-0.422,0.5C707.969,657.375,707.867,645.474,706.309,634.345z M898.085,343.362
	c2.611,0,4.317,0.517,5.07,1.535c0.849,1.151,1.819,4.566-1.239,14.499c-0.143,0.466-0.206,0.952-0.181,1.439
	c0.267,5.724,0.83,13.523,1.429,21.779c1.596,22.004,3.988,55.074,1.226,63.054c-7.313,2.123-12.298,13.315-18.511,28.871
	c-1.352,3.379-2.627,6.57-3.776,9.082c-9.383,20.512-29.646,46.819-47.856,68.306c4.927-17.263,7.824-37.526,2.12-45.711
	c12.296-35.021,16.175-75.298,10.484-85.691c-1.41-2.571-3.292-3.43-4.625-3.699c-1.297-0.263-2.539-0.247-3.768-0.009
	c1.027-4.766,1.785-10.307,2.219-16.253c0.002-0.004,0.005-0.007,0.007-0.011C848.778,384.574,890.086,343.417,898.085,343.362z
	 M809.619,353.67c3.067-3.946,7.216-9.288,9.024-10.287c2.141,0.398,4.158,2.013,5.996,4.808
	c9.209,13.998,10.283,52.174,4.394,71.547c-0.338,1.114-0.192,2.26,0.315,3.212c-4.337,4.649-9.456,11.906-16.589,22.036
	c-6.936,9.848-15.565,22.102-27.139,37.302c-1.522,1.999-3.083,3.965-4.655,5.922c11.689-40.098,8.594-80.981,1.561-107.905
	C793.823,373.898,802.895,362.329,809.619,353.67z M726.063,393.286c1.102-2.432,2.19-4.911,3.281-7.391
	c10.008-22.767,17.442-37.409,29.349-33.541c2.292,0.743,6.147,4.713,10.107,13.622c11.393,25.635,20.485,86.277-3.362,140.295
	c-8.863,9.73-18.044,19.06-27.067,28.201c-20.632,20.903-40.19,40.721-51.581,61.583c-1.651-0.864-3.405-1.551-5.295-1.987
	c-3.099-0.717-5.926-0.808-8.614-0.331c5.215-27.339-0.172-60.418-8.117-91.65c0.229-0.374,0.418-0.779,0.524-1.229
	c2.055-8.733,18.645-35.934,33.281-59.934C710.393,421.534,721.564,403.219,726.063,393.286z M643.051,420.839
	c5.982-18.596,20.286-35.324,30.14-35.324c0.071,0,0.14,0.001,0.212,0.003c4.898,0.12,14.885,21.748,21.189,45.712
	c-1.069,1.755-2.145,3.52-3.23,5.299c-12.283,20.139-24.051,39.439-30.193,52.091c-3.444-12.343-7.113-24.206-10.478-35.08
	c-3.668-11.851-6.879-22.241-9.012-30.711C642.299,422.33,642.789,421.654,643.051,420.839z M599.489,382.114
	c11.066,0,26.414,10.398,33.251,39.706c2.157,9.243,5.741,20.816,9.887,34.217c13.315,43.027,31.504,101.839,20.495,142.474
	c-8.522,6.918-17.014,20.983-30.039,42.779c-8.915,6.025-11.223,15.882-13.66,26.297c-1.75,7.475-3.56,15.171-7.946,22.059
	c-9.818-11.698-16.969-24.587-23.008-35.494c-5.342-9.65-9.596-17.333-14.361-22.028c-2.983-4.997-5.633-9.518-8.023-13.592
	c-10.742-18.32-16.872-28.77-24.623-32.366c-10.767-60.161,3.346-101.038,14.747-133.927c3.706-10.69,7.204-20.785,9.453-30.419
	C571.378,397.329,584.339,382.114,599.489,382.114z M525.581,385.518c9.927-0.313,24.324,16.595,30.349,35.322
	c0.186,0.579,0.49,1.085,0.871,1.512c-2.157,8.511-5.254,17.56-8.568,27.122c-3.784,10.916-7.855,22.697-11.269,35.725
	c-6.194-12.28-17.351-30.194-29.003-48.889c-1.159-1.86-2.309-3.706-3.45-5.539C510.817,406.991,520.706,385.637,525.581,385.518z
	 M440.287,352.355c11.892-3.866,19.341,10.771,29.35,33.544c1.09,2.48,2.179,4.957,3.28,7.388
	c4.566,10.08,15.89,28.251,27.88,47.487c14.353,23.031,30.621,49.133,32.649,57.751c0.059,0.251,0.147,0.487,0.246,0.716
	c-4.837,23.783-6.714,51.68-0.999,85.629c-1.097,0.111-2.226,0.275-3.431,0.555c-8.516,1.966-15.483,8.039-20.749,14.517
	c-8.278-13.422-25.851-34.093-45.996-57.788c-8.887-10.453-18.421-21.679-27.709-32.953c-0.006-0.014-0.008-0.029-0.014-0.042
	c-23.505-52.624-16.485-115.88-3.991-143.988C434.53,356.783,438.147,353.05,440.287,352.355z M375.157,386.566
	c1.8-6.065,3.5-11.794,3.876-17.249c1.223-17.741,4.202-25.032,10.624-26.002c3.803-0.506,17.879,13.199,29.485,28.755
	c0.019,0.026,0.044,0.044,0.063,0.069c-8.82,27.757-12.797,73.689-0.56,116.985c-1.795-2.296-3.566-4.58-5.285-6.837
	c-11.576-15.202-20.206-27.457-27.141-37.304c-5.815-8.258-10.288-14.596-14.095-19.183
	C367.899,411.088,371.743,398.07,375.157,386.566z M297.064,359.395c-3.057-9.933-2.087-13.347-1.237-14.499
	c0.752-1.018,2.457-1.535,5.067-1.535c7.498,0,50.783,39.685,59.253,56.408c0.542,1.07,1.48,1.801,2.544,2.123
	c-0.769,4.834-1.108,9.963-0.669,15.35c-1.723-0.629-3.442-0.783-5.268-0.418c-1.312,0.265-3.171,1.105-4.574,3.61
	c-5.617,10.023-2.141,50.038,10.432,85.781c-5.701,8.187-2.804,28.452,2.123,45.715c-18.21-21.486-38.472-47.793-47.857-68.311
	c-1.149-2.51-2.422-5.699-3.772-9.075c-6.215-15.559-11.202-26.753-18.516-28.878c-2.761-7.979-0.371-41.038,1.224-63.035
	c0.599-8.263,1.165-16.07,1.432-21.799C297.268,360.347,297.207,359.861,297.064,359.395z M292.193,453.743
	c3.574,0.151,10.473,17.422,13.075,23.934c1.388,3.475,2.699,6.757,3.932,9.456c17.36,37.95,68.405,92.682,81.866,106.763
	c-3.455,3.679-5.68,8.889-6.326,13.605c-9.065,16.85-7.074,45.805-1.8,67.761c-7.174-7.182-15.431-15.672-24.048-24.533
	c-6.293-6.471-12.776-13.134-19.242-19.711c0.208-1.064,0.01-2.208-0.646-3.177C305.235,577.942,279.467,481.506,292.193,453.743z
	 M226.749,547.268c1.136-4.882,4.209-7.67,9.668-8.773c3.963-0.8,10.993,9.67,16.631,18.09c6.917,10.333,14.755,22.043,24.782,28.78
	c16.527,11.106,47.598,43.057,75.011,71.248c11.69,12.021,22.73,23.375,31.355,31.756c0.834,0.809,1.915,1.204,2.991,1.192
	c1.072,2.931,2.183,5.548,3.299,7.74c6.949,13.648,49.202,79.39,101.627,120.261c-48.362-8.014-85.304-21.63-109.897-40.592
	C352.962,754.416,216.474,591.403,226.749,547.268z M233.95,599.806c21.32,40.947,60.039,92.351,92.723,130.877
	c-51.07-24.323-204.656-104.311-252.6-206.904c3.701,1.277,7.88,3.809,12.432,7.669C138.002,575.116,224.815,597.534,233.95,599.806
	z M286.708,746.536C234.2,716.718,111.235,646.888,59.366,541.326c-1.889-3.844-0.995-12.744,4.066-16.689
	c0.508-0.396,1.069-0.68,1.639-0.948c0.019,0.533,0.136,1.071,0.369,1.587c57.502,127.029,265.51,216.951,274.592,220.825
	c14.58,16.452,27.016,29.199,34.779,35.728c-21.4-2.997-51.023-13.086-69.174-24.31C300.996,754.65,294.691,751.069,286.708,746.536
	z M468.218,844.004c-29.552,5.246-60.109,10.671-83.166,12.48c-37.224,2.93-149.112-26.956-180.965-62.189
	c11.313-0.406,36.958,10.011,56.33,17.883c15.049,6.114,29.265,11.891,40.268,14.788c12.091,3.184,40.122,5.004,72.58,7.113
	c33.846,2.198,71.284,4.637,99.775,9.069C471.44,843.432,469.832,843.718,468.218,844.004z M495.714,839.201
	c-0.389-0.249-0.815-0.452-1.29-0.565c-29.725-7.076-78.011-10.213-120.612-12.98c-32.021-2.08-59.676-3.878-70.978-6.854
	c-10.477-2.759-24.448-8.435-39.239-14.445c-28.995-11.782-49.011-19.396-61.027-18.359c0.511-3.785,1.979-6.956,4.43-9.454
	c5.225-5.321,13.908-6.848,20.199-5.997c9.052,1.223,38.39,3.684,64.273,5.855c20.088,1.685,40.852,3.427,43.496,3.895
	c0.018,0.005,0.035,0,0.053,0.005c18.448,6.534,37.916,10.879,51.356,10.879c0.484,0,0.934-0.023,1.402-0.035
	c28.337,18.079,67.568,30.294,119.35,37.206c3.936,2.584,7.913,4.997,11.923,7.211C511.915,836.547,504.052,837.796,495.714,839.201
	z M398.009,693.471c-9.804-19.253-16.171-63.898-5.508-82.559c0.298-0.519,0.481-1.098,0.537-1.694
	c0.459-4.824,3.538-10.135,6.587-11.366c0.574-0.228,2.087-0.841,4.538,1.261c0.576,0.492,1.272,0.822,2.018,0.952
	c13.511,2.365,43.67,30.264,78.71,72.811c15.24,18.506,29.396,28.707,41.884,37.707c11.276,8.125,20.377,14.745,27.293,25.249
	c-1.74,1.188-3.449,2.367-5.106,3.513c-7.862,5.438-15.992,11.062-19.894,11.583c-6.57,0.877-12.672,6.393-16.326,14.755
	c-6.514,14.916-3.546,33.535,7.938,49.805c6.189,8.768,13.184,15.602,20.439,20.933C476.734,812.339,411.9,720.754,398.009,693.471z
	 M527.578,810.62c-14.472-20.502-9.092-36.991-7.098-41.557c2.387-5.464,6.195-9.298,9.705-9.766
	c5.916-0.789,13.713-6.182,23.581-13.008c13.935-9.639,31.276-21.635,45.724-21.635c14.449,0,31.792,11.996,45.727,21.635
	c9.868,6.827,17.664,12.219,23.581,13.008c3.509,0.469,7.318,4.302,9.706,9.766c1.992,4.566,7.373,21.055-7.098,41.557
	c-22.844,32.359-57.903,35.853-71.915,35.853C585.476,846.473,550.418,842.979,527.578,810.62z M678.302,815.489
	c11.484-16.27,14.449-34.889,7.936-49.805c-3.652-8.362-9.755-13.879-16.326-14.755c-3.902-0.521-12.031-6.145-19.893-11.583
	c-1.657-1.146-3.366-2.326-5.107-3.514c6.915-10.503,16.017-17.123,27.292-25.248c12.49-9,26.645-19.2,41.885-37.707
	c35.04-42.547,65.199-70.447,78.709-72.811c0.745-0.131,1.443-0.46,2.017-0.952c2.454-2.104,3.965-1.494,4.54-1.261
	c3.05,1.231,6.128,6.542,6.587,11.366c0.058,0.596,0.239,1.175,0.536,1.694c10.665,18.662,4.298,63.306-5.507,82.559
	c-13.891,27.283-78.724,118.869-143.11,142.952C665.117,831.092,672.112,824.258,678.302,815.489z M816.362,854.969
	c-22.817-0.456-59.335-6.683-91.555-12.178c-0.015-0.003-0.031-0.005-0.046-0.008c25.627-4.382,58.294-5.518,90.121-6.612
	c34.856-1.2,67.78-2.332,88.406-7.751c17.771-4.669,35.636-12.795,51.399-19.964c16.335-7.43,31.876-14.483,40.317-14.167
	C967.887,826.143,903.14,856.693,816.362,854.969z M872.971,775.606c1.201-0.071,5.892,0.055,10.841,0.19
	c23.276,0.625,71.718,1.932,89.077-5.555c3.938-1.701,10.849-1.154,16.441,3.167c3.944,3.049,6.309,7.384,7.021,12.549
	c-10.762-0.816-26.338,6.255-45.16,14.816c-15.455,7.029-32.973,14.997-50.047,19.483c-19.714,5.179-52.182,6.296-86.554,7.477
	c-40.426,1.391-82.229,2.829-110.234,10.955c-0.378,0.109-0.717,0.282-1.036,0.479c-8.387-1.382-16.292-2.623-23.398-3.6
	c4.012-2.215,7.99-4.63,11.929-7.215c51.782-6.911,91.014-19.127,119.352-37.207c0.177,0.002,0.346,0.013,0.526,0.013
	c14.281,0,35.322-7.31,57.342-16.784C870.058,775.415,871.524,775.903,872.971,775.606z M1139.768,541.041
	c-64.026,108.405-201.924,191.741-245.183,212.388c-15.162,7.237-46.502,22.194-69.18,27.416
	c10.25-8.546,22.213-21.115,34.527-35.285c10.885-6.389,145.329-85.432,172.153-106.755
	c31.645-25.158,89.144-85.136,100.413-110.856c4.899,0.319,6.969,2.04,7.691,2.909
	C1142.433,533.568,1141.546,538.035,1139.768,541.041z M622.976,743.604c-7.258,28.697-11.259,58.25-11.893,87.837
	c-0.049,2.3-1.929,4.13-4.218,4.13c-0.033,0-0.063,0-0.093-0.001c-2.33-0.049-4.18-1.98-4.13-4.31
	c0.651-30.224,4.738-60.411,12.152-89.725c0.572-2.26,2.866-3.625,5.128-3.057C622.18,739.049,623.548,741.344,622.976,743.604z
	 M584.188,741.535c7.413,29.312,11.5,59.5,12.152,89.725c0.049,2.33-1.799,4.261-4.129,4.31c-0.03,0.001-0.062,0.001-0.092,0.001
	c-2.289,0-4.169-1.83-4.218-4.13c-0.638-29.589-4.64-59.141-11.896-87.837c-0.572-2.26,0.797-4.555,3.057-5.126
	C581.33,737.908,583.618,739.276,584.188,741.535z M567.495,566.768c-0.664-2.234,0.609-4.584,2.844-5.249
	c2.24-0.658,4.585,0.611,5.249,2.844c5.548,18.667,9.031,37.99,10.352,57.428c0.158,2.326-1.599,4.339-3.926,4.497
	c-0.098,0.007-0.194,0.01-0.29,0.01c-2.201,0-4.056-1.706-4.207-3.935C576.24,603.545,572.868,584.841,567.495,566.768z
	 M595.768,650.963l-4.448-81.172c-0.128-2.328,1.656-4.319,3.983-4.445c2.396-0.154,4.317,1.656,4.446,3.983l4.449,81.172
	c0.126,2.328-1.657,4.317-3.985,4.445c-0.077,0.005-0.157,0.007-0.234,0.007C597.755,654.953,595.892,653.212,595.768,650.963z
	 M612.35,630.126c0.91-22.858,5.985-45.089,15.084-66.075c0.923-2.139,3.41-3.125,5.551-2.193c2.138,0.926,3.122,3.412,2.193,5.551
	c-8.681,20.025-13.526,41.239-14.391,63.052c-0.091,2.273-1.962,4.053-4.215,4.053c-0.058,0-0.113-0.001-0.17-0.003
	C614.07,634.419,612.259,632.455,612.35,630.126z M634.056,607.443l9.129-36.444c0.566-2.259,2.852-3.636,5.12-3.07
	c2.262,0.566,3.636,2.858,3.07,5.12l-9.129,36.447c-0.481,1.917-2.201,3.196-4.092,3.196c-0.338,0-0.684-0.041-1.028-0.128
	C634.864,611.996,633.49,609.705,634.056,607.443z"/>
</svg>
